<?xml version="1.0" standalone="no"?>
<!DOCTYPE svg PUBLIC "-//W3C//DTD SVG 20010904//EN"
 "http://www.w3.org/TR/2001/REC-SVG-20010904/DTD/svg10.dtd">
<svg version="1.0" xmlns="http://www.w3.org/2000/svg"
 width="700.000000pt" height="700.000000pt" viewBox="0 0 700.000000 700.000000"
 preserveAspectRatio="xMidYMid meet">
<metadata>
Created by potrace 1.11, written by Peter Selinger 2001-2013
</metadata>
<g transform="translate(0.000000,700.000000) scale(0.100000,-0.100000)"
fill="#000000" stroke="none">
<path d="M3235 6870 c-294 -55 -514 -170 -755 -394 -103 -97 -242 -276 -305
-392 -20 -38 -41 -73 -45 -79 -16 -21 -99 -226 -123 -306 -28 -91 -62 -251
-71 -339 -7 -58 -8 -298 -2 -340 3 -14 7 -47 11 -75 26 -201 122 -461 243
-658 23 -37 42 -71 42 -76 0 -5 3 -11 8 -13 4 -1 29 -33 55 -70 107 -151 299
-359 555 -601 45 -42 82 -79 82 -81 0 -3 -6 -11 -13 -18 -93 -97 -282 -344
-363 -474 -172 -275 -298 -644 -329 -959 -4 -38 -9 -81 -11 -95 -6 -36 -6
-359 0 -400 3 -19 8 -57 10 -85 36 -358 187 -784 415 -1165 86 -146 126 -199
147 -196 20 3 31 23 143 256 86 179 147 279 235 380 79 92 78 95 -8 273 -115
235 -160 443 -151 695 2 75 7 153 10 172 54 323 159 570 388 913 50 75 94 137
97 137 3 0 14 -13 23 -30 10 -16 23 -35 30 -42 17 -18 147 -216 147 -225 0 -3
6 -14 14 -22 23 -27 113 -207 150 -299 64 -160 108 -322 124 -452 17 -134 6
-406 -20 -505 -5 -22 -12 -50 -14 -62 -9 -51 -68 -200 -118 -300 -75 -149 -76
-166 -11 -238 99 -110 201 -285 333 -572 53 -115 65 -110 171 62 218 353 355
697 426 1065 19 96 36 279 37 392 1 133 -9 344 -17 358 -2 4 -6 30 -9 58 -13
133 -94 427 -159 577 -47 109 -119 245 -178 335 -64 99 -206 290 -260 350 -17
19 -47 54 -66 77 l-35 43 73 67 c393 362 615 635 760 933 63 131 128 322 145
428 3 19 7 42 9 52 23 122 23 334 0 514 -9 65 -55 245 -86 333 -71 199 -211
442 -335 578 -19 22 -46 51 -58 65 -92 102 -243 220 -375 294 -136 77 -273
126 -451 162 -19 4 -120 8 -225 10 -151 2 -210 -1 -290 -16z m435 -594 c300
-20 584 -194 697 -427 23 -46 47 -109 54 -139 16 -70 16 -312 0 -410 -37 -223
-150 -453 -330 -671 -43 -52 -309 -320 -498 -503 l-92 -88 -98 93 c-522 500
-680 698 -773 977 -69 208 -69 419 2 617 95 265 312 449 617 522 74 18 260 40
306 37 17 -1 68 -5 115 -8z"/>
<path d="M3127 5898 c-93 -20 -164 -81 -202 -174 -46 -112 -23 -286 48 -363
51 -54 127 -88 211 -94 l50 -3 -3 -55 c-6 -128 56 -256 147 -303 33 -17 120
-34 150 -29 21 3 21 0 21 -112 -1 -91 -5 -123 -20 -152 -17 -34 -17 -37 -1
-49 25 -18 124 -35 204 -35 202 0 326 112 329 295 1 77 -13 131 -48 184 -35
51 -65 74 -128 98 -98 37 -364 14 -382 -33 -4 -10 4 -23 20 -35 20 -15 27 -28
27 -54 0 -30 -3 -34 -27 -34 -45 0 -92 36 -116 88 -18 39 -22 66 -22 159 l0
111 38 39 c22 21 45 50 53 66 24 45 80 34 162 -31 35 -27 45 -32 57 -22 17 14
12 42 -17 109 -18 39 -22 42 -46 36 -34 -8 -66 -9 -97 -1 -23 6 -25 11 -21 51
4 62 -11 149 -34 195 -60 117 -208 179 -353 148z m124 -68 c75 -21 120 -121
116 -261 -3 -87 -4 -90 -39 -127 -19 -20 -44 -52 -54 -69 -18 -33 -22 -35 -59
-36 -50 -1 -67 5 -99 33 -79 70 -96 285 -30 398 14 23 26 42 27 42 1 0 20 7
42 15 49 17 51 17 96 5z m575 -781 c64 -30 96 -103 98 -218 1 -75 -3 -93 -26
-142 -30 -61 -76 -94 -138 -98 -69 -4 -74 8 -76 180 -1 149 -1 155 23 183 28
34 27 58 -4 66 -25 6 -20 20 12 38 30 17 64 14 111 -9z"/>
</g>
</svg>
